<svg xmlns="http://www.w3.org/2000/svg" viewBox="0 0 250 250"><path d="M119.76 131.29a2 2 0 0 1-1.42-.59L64 76.38a2 2 0 0 1-.59-1.44 2 2 0 0 1 .62-1.43 82.36 82.36 0 0 1 75.17-20.62 2 2 0 0 1 1.26.9 2 2 0 0 1 .24 1.53l-.11.42-18.91 74a2 2 0 0 1-1.41 1.44 1.93 1.93 0 0 1-.51.11zM68.31 75l50.38 50.37 17.64-69A78.33 78.33 0 0 0 68.31 75zM147 38.93a5.73 5.73 0 1 1 5.73-5.73 5.74 5.74 0 0 1-5.73 5.73zm0-8.59a2.86 2.86 0 1 0 2.86 2.86 2.86 2.86 0 0 0-2.86-2.86zm19 24.47l3.45-3.46a1 1 0 0 0 0-1.38 1 1 0 0 0-1.39 0l-3.45 3.45-3.46-3.42a1 1 0 1 0-1.39 1.38l3.45 3.46-3.45 3.45a1 1 0 1 0 1.39 1.39l3.45-3.45 3.45 3.45a1 1 0 0 0 1.39 0 1 1 0 0 0 0-1.39zm28.38-15.43h-7.53v-7.53a1.52 1.52 0 0 0-3 0v7.53h-7.55a1.52 1.52 0 1 0 0 3h7.52v7.53a1.52 1.52 0 0 0 3 0v-7.5h7.53a1.52 1.52 0 0 0 0-3z" fill="#cd1c3e"/><path d="M126.43 137.14a2 2 0 0 1-1.93-2.52l18.9-70.47a2 2 0 0 1 .95-1.22 2 2 0 0 1 1.53-.18 80.19 80.19 0 0 1 33.3 19 2 2 0 0 1 0 2.86l-51.37 51.95a2 2 0 0 1-1.38.58zm20.3-70l-16.41 61.19 44.61-45.11a76.31 76.31 0 0 0-28.2-16.05zm-23.26 155.39a80 80 0 0 1-58-135.08 2 2 0 0 1 1.43-.63 2.1 2.1 0 0 1 1.44.59l54.15 54.15a2 2 0 0 1 .56 1.13l11.19 77.05a2 2 0 0 1-.4 1.5 2 2 0 0 1-1.36.77 82.44 82.44 0 0 1-9.01.52zM67 91.71a76 76 0 0 0 56.48 126.82c2.11 0 4.3-.1 6.52-.29l-10.8-74.32zm72.29 129.76a2 2 0 0 1-1.18-.38 2 2 0 0 1-.8-1.33l-11-75.77a1.86 1.86 0 0 1 0-.78l.37-1.46a1.94 1.94 0 0 1 .54-.93l54.44-53.42a2.09 2.09 0 0 1 1.44-.58 2 2 0 0 1 1.42.62 80 80 0 0 1-44.9 134zm-9-77.66L141 217.14a76 76 0 0 0 42-125.45l-52.53 51.59z"/></svg>