<svg xmlns="http://www.w3.org/2000/svg" viewBox="0 0 250 250"><defs><style>.cls-1{fill:#cd1c3e}</style></defs><g id="NERO"><path class="cls-1" d="M125 150.19a19.26 19.26 0 1 1 6.3-37.44 2.22 2.22 0 0 1 .47 4 3.23 3.23 0 0 0 1.73 6 3.25 3.25 0 0 0 3.11-2.38 2.22 2.22 0 0 1 3.93-.72A19.23 19.23 0 0 1 125 150.19zm0-34.08a14.83 14.83 0 1 0 14.82 14.83 14.51 14.51 0 0 0-1.19-5.8 7.66 7.66 0 0 1-12.08-8.94 13.43 13.43 0 0 0-1.55-.09zm.27-54.82a5.73 5.73 0 1 1 5.73-5.73 5.74 5.74 0 0 1-5.73 5.73zm0-8.59a2.86 2.86 0 1 0 2.86 2.86 2.87 2.87 0 0 0-2.86-2.86zm15.27 20.46L144 69.7a1 1 0 0 0 0-1.39 1 1 0 0 0-1.39 0l-3.45 3.46-3.45-3.46a1 1 0 1 0-1.39 1.39l3.45 3.46-3.45 3.45A1 1 0 1 0 135.7 78l3.45-3.46L142.6 78a1 1 0 0 0 1.4 0 1 1 0 0 0 0-1.39zm23.27-20.97h-7.53v-7.53a1.52 1.52 0 0 0-3 0v7.53h-7.53a1.52 1.52 0 0 0 0 3h7.53v7.53a1.52 1.52 0 0 0 3 0v-7.5h7.53a1.52 1.52 0 0 0 0-3z"/><path d="M188.08 86l-11.9-11.9a1.82 1.82 0 0 0-2.59 0l-4.86 4.9-16.67 16.66c1.21.49 2.43 1 3.65 1.55L170 82.89l3.36 3.36-13.07 13.09c1.14.56 2.28 1.14 3.43 1.75L176 88.84l3.36 3.36-11.28 11.28c1.08.62 2.17 1.26 3.26 1.92l11.91-11.9 4.86-4.86a1.83 1.83 0 0 0-.03-2.64zm-6.16 3.56l-9.3-9.3 2.27-2.26 9.3 9.31zM125 157.77a26.84 26.84 0 1 1 26.83-26.83A26.86 26.86 0 0 1 125 157.77zm0-51.93a25.1 25.1 0 1 0 25.1 25.1 25.13 25.13 0 0 0-25.1-25.1z"/><path d="M125 165.47a34.53 34.53 0 1 1 34.53-34.53A34.57 34.57 0 0 1 125 165.47zm0-64.63a30.1 30.1 0 1 0 30.1 30.1 30.13 30.13 0 0 0-30.1-30.1zm-39.95 90.75a2.19 2.19 0 0 0 .35-.27l21.89-21.89c-1.31-.37-2.63-.79-4-1.23L84.1 187.43l-3.36-3.36 17.67-17.67q-1.81-.72-3.66-1.53l-16.6 16.61-3.36-3.36 15.38-15.37q-1.73-.84-3.45-1.74L70.9 176.83a1.4 1.4 0 0 0-.26.34.39.39 0 0 0-.06.11 2.08 2.08 0 0 0-.13.3v.06L66 194a1.82 1.82 0 0 0 .48 1.77 1.84 1.84 0 0 0 1.3.54 2 2 0 0 0 .48-.06l16.33-4.44h.06a1.69 1.69 0 0 0 .31-.13zm-11.91-9.93l3.71 3.71 3.71 3.71-10.18 2.77zM70.61 68.13l-14.7 14.71a1.82 1.82 0 0 0 0 2.59l21.26 21.27.33-.2a1.81 1.81 0 0 0 2.47-.1l7.1-7.11a1.83 1.83 0 1 0-2.59-2.59l-6.06 6-2.09-2.09L80 97a1.84 1.84 0 0 0-2.6-2.6l-3.68 3.69L71.64 96l6.06-6.06a1.83 1.83 0 1 0-2.6-2.59l-6 6-2.1-2.06 3.68-3.69a1.83 1.83 0 0 0-2.63-2.6l-3.69 3.68-4.56-4.55L71.91 72l24.44 24.46q1.86-.79 3.69-1.5L73.21 68.13a1.83 1.83 0 0 0-2.6 0z"/><path class="cls-1" d="M126.45 174.53h-2.9a4.16 4.16 0 0 1-1.06-.13c-15.45-1-32.66-7.71-51.18-20a188.54 188.54 0 0 1-25.19-19.89 4.51 4.51 0 0 1-1.34-3.15 4.46 4.46 0 0 1 1.31-3.16 187.23 187.23 0 0 1 25.18-20.3C89.8 95.36 107 88.49 122.47 87.47a4.32 4.32 0 0 1 1.08-.13h2.9a4.29 4.29 0 0 1 1.07.13c15.44 1 32.65 7.71 51.17 20a189.48 189.48 0 0 1 25.19 19.89 4.43 4.43 0 0 1 0 6.32A186.86 186.86 0 0 1 178.73 154c-18.53 12.55-35.75 19.42-51.2 20.43a4.32 4.32 0 0 1-1.08.1zm0-82.76h-2.9a2.21 2.21 0 0 1-.57.11c-14.71.91-31.27 7.53-49.22 19.69a182.8 182.8 0 0 0-24.54 19.79 182 182 0 0 0 24.54 19.37c17.95 11.9 34.52 18.38 49.24 19.27a2.64 2.64 0 0 1 .56.11h2.9a2.21 2.21 0 0 1 .54-.11c14.7-.91 31.27-7.53 49.22-19.69a182.8 182.8 0 0 0 24.54-19.79 184.26 184.26 0 0 0-24.54-19.37c-18-11.9-34.52-18.37-49.23-19.26a2.14 2.14 0 0 1-.54-.12z"/><path d="M194.09 189l-29.15-29.15c-1.14.63-2.26 1.23-3.38 1.81l28.64 28.64-12.11 12.11-3.33-3.33 6.06-6.05a1.84 1.84 0 0 0-2.6-2.6l-6.05 6.06-2.09-2.09 3.68-3.69a1.83 1.83 0 0 0-2.59-2.6l-3.69 3.69-2.09-2.09 6.05-6.06a1.83 1.83 0 0 0-2.59-2.59l-6.06 6.05-2.09-2.11 3.69-3.68a1.84 1.84 0 0 0-2.6-2.6l-3.68 3.69-2.1-2.09 6.06-6.06a1.84 1.84 0 0 0-2.6-2.6l-6.05 6.06-2.09-2.09L155 172a1.83 1.83 0 0 0-2.59-2.59l-3.69 3.68-4.23-4.23c-1.36.43-2.7.81-4 1.16l36.32 36.32a1.83 1.83 0 0 0 2.6 0l14.7-14.7a1.83 1.83 0 0 0-.02-2.64z"/></g></svg>