<svg xmlns="http://www.w3.org/2000/svg" viewBox="0 0 250 250"><defs><style>.cls-1{fill:#cd1c3e}</style></defs><g id="NERO"><path class="cls-1" d="M126.14 101.3l3.33 6.75 7.44 1.08a1 1 0 0 1 .55 1.71l-5.38 5.24 1.27 7.42a1 1 0 0 1-1.45 1l-6.66-3.5-6.66 3.5a1 1 0 0 1-1.45-1l1.27-7.42-5.4-5.24a1 1 0 0 1 .55-1.71l7.45-1.08 3.32-6.75a1 1 0 0 1 1.82 0z"/><path d="M130.17 172.2a1.54 1.54 0 0 1-1.55-1.55v-12.82a1.55 1.55 0 1 1 3.1 0v12.82a1.54 1.54 0 0 1-1.55 1.55z"/><path d="M194.49 49.51a1.66 1.66 0 0 0 0-.32v-.11a2.86 2.86 0 0 0-.15-.41v-.05a2.11 2.11 0 0 0-.21-.31l-.1-.11-.14-.15-28.6-24.66-.1-.08-.11-.07a1.93 1.93 0 0 0-1-.33H57.5a2 2 0 0 0-2 2v175.51a2 2 0 0 0 2 2h135a2 2 0 0 0 2-2V49.57s-.01-.04-.01-.06zm-6-.77l-12.66 4-7.54-21.42zm2 149.68H59.5V26.9h103l10.2 29a2 2 0 0 0 2.49 1.24l15.31-4.84z"/><path d="M92.4 131.13h-8.08v-8.08a1.63 1.63 0 1 0-3.25 0v8.08H73a1.63 1.63 0 0 0 0 3.26h8.09v8.08a1.63 1.63 0 1 0 3.25 0v-8.08h8.06a1.63 1.63 0 0 0 0-3.26zm20.54 11.65a5.73 5.73 0 1 1 5.73-5.73 5.74 5.74 0 0 1-5.73 5.73zm0-8.59a2.86 2.86 0 1 0 2.86 2.86 2.87 2.87 0 0 0-2.86-2.86zm54.22-11.27a5.73 5.73 0 1 1 5.73-5.73 5.74 5.74 0 0 1-5.73 5.73zm0-8.58a2.86 2.86 0 1 0 2.86 2.85 2.86 2.86 0 0 0-2.86-2.85zM97.91 95.53a.7.7 0 0 0-1 0L94.41 98l-2.49-2.49a.71.71 0 0 0-1 0 .7.7 0 0 0 0 1l2.5 2.5-2.5 2.49a.71.71 0 1 0 1 1l2.49-2.5 2.5 2.5a.7.7 0 0 0 1 0 .71.71 0 0 0 0-1L95.42 99l2.49-2.5a.7.7 0 0 0 0-.97zm14.81-52.65a1.55 1.55 0 0 0-1.56 1.55v12.82a1.56 1.56 0 1 0 3.11 0V44.43a1.55 1.55 0 0 0-1.55-1.55zM152.91 95l3.85-3.85a1.1 1.1 0 1 0-1.55-1.55l-3.85 3.85-3.85-3.85a1.1 1.1 0 0 0-1.51 1.58l3.81 3.82-3.81 3.88a1.1 1.1 0 0 0 1.55 1.55l3.85-3.85 3.85 3.85a1.1 1.1 0 1 0 1.55-1.55zm-44.33-18.62h-5.44v-5.44a1.1 1.1 0 0 0-2.19 0v5.44h-5.44a1.1 1.1 0 1 0 0 2.19H101V84a1.1 1.1 0 1 0 2.19 0v-5.43h5.44a1.1 1.1 0 1 0 0-2.19zm26.91-12.26a5.73 5.73 0 1 0 5.72 5.73 5.74 5.74 0 0 0-5.72-5.73zm0 8.59a2.86 2.86 0 1 1 2.86-2.86 2.87 2.87 0 0 1-2.86 2.86z"/><path class="cls-1" d="M162.82 140.44h11.67v87.09a2.67 2.67 0 0 1-2.67 2.67h-6.33a2.67 2.67 0 0 1-2.67-2.67v-87.09z" transform="rotate(-26.78 168.682 185.328)"/><path class="cls-1" d="M144.42 148.82a1.61 1.61 0 0 1-.48-.08 1.57 1.57 0 0 1-.89-.77l-6.5-12.87a5.71 5.71 0 0 1 2.52-7.65l.61-.31a5.67 5.67 0 0 1 4.35-.32 5.59 5.59 0 0 1 3.3 2.84l6.5 12.87a1.54 1.54 0 0 1-.68 2.07l-8 4.05a1.57 1.57 0 0 1-.73.17zm-3.35-18.93l-.61.31a2.62 2.62 0 0 0-1.16 3.52l5.8 11.49 5.29-2.66-5.8-11.5a2.62 2.62 0 0 0-1.52-1.31 2.57 2.57 0 0 0-2 .15z"/></g></svg>