<svg xmlns="http://www.w3.org/2000/svg" viewBox="0 0 250 250"><path d="M61.57 145.53l3.43-3.46a1 1 0 1 0-1.39-1.39l-3.46 3.46-3.45-3.46a1 1 0 1 0-1.39 1.39l3.45 3.46-3.42 3.47a1 1 0 1 0 1.39 1.39l3.45-3.45 3.46 3.45A1 1 0 1 0 65 149zm74.26-47.74l4.06-4.07a1.15 1.15 0 0 0-1.63-1.63l-4.06 4.06-4.07-4.06a1.15 1.15 0 0 0-1.63 1.63l4.06 4.07-4.06 4.06a1.15 1.15 0 0 0 1.63 1.63l4.07-4.06 4.06 4.06a1.15 1.15 0 0 0 1.63-1.63zM195.32 159l4.06-4.06a1.16 1.16 0 0 0 0-1.64 1.15 1.15 0 0 0-1.63 0l-4.07 4.06-4.06-4.06A1.16 1.16 0 0 0 188 155l4.06 4.06-4.06 4.04a1.15 1.15 0 0 0 1.63 1.63l4.06-4.06 4.07 4.06a1.14 1.14 0 0 0 1.63 0 1.15 1.15 0 0 0 0-1.63zm-7.72-79h-4.88v-4.85a1 1 0 1 0-2 0V80h-4.88a1 1 0 0 0 0 2h4.88v4.89a1 1 0 0 0 2 0V82h4.88a1 1 0 1 0 0-2zm-31.97 50.7h-4.88v-4.89a1 1 0 1 0-2 0v4.89h-4.85a1 1 0 1 0 0 2h4.89v4.88a1 1 0 1 0 2 0v-4.88h4.88a1 1 0 1 0 0-2zm-60.74-18.29h-7.53v-7.53a1.51 1.51 0 0 0-3 0v7.53h-7.55a1.52 1.52 0 1 0 0 3h7.53V123a1.51 1.51 0 0 0 3 0v-7.53h7.53a1.52 1.52 0 1 0 0-3zM59.97 72.17h5.63v5.63h-5.63zm11.25 0h5.63v5.63h-5.63zm10.82 0h5.63v5.63h-5.63z"/><path d="M212.82 50.53H37.18a1.41 1.41 0 0 0-1.41 1.41v126.25a1.41 1.41 0 0 0 1.41 1.41h175.64a1.41 1.41 0 0 0 1.41-1.41V51.94a1.41 1.41 0 0 0-1.41-1.41zM175 57.28a1.63 1.63 0 0 1-1.63 1.63H76.69a1.63 1.63 0 1 1 0-3.26h96.68a1.63 1.63 0 0 1 1.63 1.63zm-113.77 0a2 2 0 1 1-2-2 2 2 0 0 1 2 2zm-6 0a2 2 0 1 1-2-2 2 2 0 0 1 2.03 2zm-6 0a2 2 0 1 1-2-2 2 2 0 0 1 2.07 2zm-10.65 119.5V63.28h172.84v113.5z"/><path d="M185.61 116.48a8.07 8.07 0 0 0-8.06 8.06 8 8 0 0 0 1.23 4.27l-37.87 42.44a8 8 0 0 0-3.79-1 8.05 8.05 0 0 0-3.82 1l-12.3-13.7a8.07 8.07 0 1 0-13.38-.11l-25.16 27.05a8 8 0 0 0-4.13-1.16 8.07 8.07 0 1 0 8.07 8.07 8 8 0 0 0-1.22-4.24l25.2-27.16a8.09 8.09 0 0 0 3.94 1 8 8 0 0 0 3.82-1l12.32 13.71a8.06 8.06 0 1 0 13.3 0l37.75-42.31a8.06 8.06 0 1 0 4.1-15zm-3.07 11a3.9 3.9 0 1 1 .1.11.52.52 0 0 0-.1-.12zm-41.17 50.89a4.26 4.26 0 1 1-4.25-4.25 4.21 4.21 0 0 1 2.77 1v.05a.71.71 0 0 0 .14.1 4.22 4.22 0 0 1 1.34 3.09zM110.06 153a4.26 4.26 0 1 1 4.26 4.26 4.26 4.26 0 0 1-4.26-4.26zm-28.69 35.43a4.25 4.25 0 1 1-3-1.28 4.25 4.25 0 0 1 3 1.28z" fill="#cd1c3e"/></svg>