<svg xmlns="http://www.w3.org/2000/svg" viewBox="0 0 250 250"><defs><style>.cls-1{fill:#cd1c3e}</style></defs><g id="NERO"><path class="cls-1" d="M89.48 103.52H52.75A1.56 1.56 0 0 1 51.2 102V76.09a1.56 1.56 0 0 1 1.55-1.56h36.73A1.56 1.56 0 0 1 91 76.09V102a1.56 1.56 0 0 1-1.52 1.52zm-35.17-3.11h33.61V77.64H54.31zm139.8-25.48v-.05a1 1 0 0 0 0-.17v-.15a.88.88 0 0 0 0-.15s0-.1-.05-.15-.05-.08-.07-.13l-.1-.15a.46.46 0 0 1-.07-.07l-.12-.12a.4.4 0 0 0-.12-.1l-.12-.09-.14-.08-.15-.06H155.2l-.14.06-.14.08-.13.09-.12.1-.11.12-.07.07-.09.15c0 .05-.05.09-.07.13a5494456979927.3 5494456979927.3 0 0 0-.1.3v28.88a.88.88 0 0 0 .05.15.88.88 0 0 0 .05.15s0 .08.07.13l.09.15.16.17.11.08a.94.94 0 0 0 .18.12l.11.06a1.13 1.13 0 0 0 .24.08h.09a1.27 1.27 0 0 0 .34 0h36.72a1.34 1.34 0 0 0 .35 0h.09a.9.9 0 0 0 .23-.08l.12-.06.18-.11.1-.09a1.29 1.29 0 0 0 .16-.17h.06l.1-.15s0-.09.07-.13 0-.1.05-.15a.88.88 0 0 0 0-.15v-.15a.88.88 0 0 0 0-.17V74.93zm-36.72 3.29L171.47 89l-14.08 10.8zm3.15-1.67h27.18L174.13 87zm13.59 14.52l13.59 10.43h-27.18zm2.66-2l14.08-10.81v21.57zm-4.03 49.46s.06-.1.08-.15a.41.41 0 0 0 .07-.11l.09-.1.11-.12 15-13.3a20.11 20.11 0 1 0-23.46 32.18z"/><path class="cls-1" d="M194.17 137.63a20 20 0 0 0-4-10.67l-12 10.67zm-19.04 3l-7.69 17.45a20.05 20.05 0 0 0 26.75-17.45z"/><path d="M134.85 77.41H99.13a1.56 1.56 0 0 1 0-3.11h35.72a1.56 1.56 0 1 1 0 3.11zm0 7.24H99.13a1.55 1.55 0 1 1 0-3.1h35.72a1.55 1.55 0 1 1 0 3.1zm0 7.25H99.13a1.56 1.56 0 0 1 0-3.11h35.72a1.56 1.56 0 1 1 0 3.11zM112 99.14H99.13a1.55 1.55 0 0 1 0-3.1H112a1.55 1.55 0 0 1 0 3.1zm26.75 27.06h-85.5a1.56 1.56 0 0 1 0-3.11h85.5a1.56 1.56 0 0 1 0 3.11zm0 8.24h-85.5a1.55 1.55 0 1 1 0-3.1h85.5a1.55 1.55 0 1 1 0 3.1zm-54.81 8.49H53.25a1.55 1.55 0 1 1 0-3.1h30.69a1.55 1.55 0 1 1 0 3.1zm84.45 57.6a7.93 7.93 0 1 1 7.92-7.93 7.94 7.94 0 0 1-7.92 7.93zm0-11.88a4 4 0 1 0 4 3.95 4 4 0 0 0-4-3.95z"/><path d="M212.83 54.07h-85.71V37.79a2.12 2.12 0 1 0-4.24 0v16.28H37.17a2.12 2.12 0 0 0-2.12 2.12v121.07a2.13 2.13 0 0 0 2.12 2.13h83.89l-21.83 33.23a2.12 2.12 0 1 0 3.54 2.33l20.11-30.59v20.09a2.12 2.12 0 1 0 4.24 0v-19.64l18.4 30.08a2.11 2.11 0 0 0 1.81 1 2.14 2.14 0 0 0 1.11-.31 2.12 2.12 0 0 0 .7-2.92l-20.35-33.29h84a2.13 2.13 0 0 0 2.12-2.13V56.19a2.12 2.12 0 0 0-2.08-2.12zm-2.13 121.07H39.3V58.32h171.4z"/><path d="M81.5 40.13l4.07-4.07a1.15 1.15 0 0 0 0-1.63 1.16 1.16 0 0 0-1.64 0l-4.06 4.06-4.06-4.06a1.16 1.16 0 0 0-1.64 0 1.15 1.15 0 0 0 0 1.63l4.07 4.07-4.07 4.06a1.15 1.15 0 0 0 0 1.63 1.16 1.16 0 0 0 1.64 0l4.06-4.06 4.06 4.06a1.16 1.16 0 0 0 1.64 0 1.15 1.15 0 0 0 0-1.63zm108.74 163.34h-4.88v-4.88a1 1 0 1 0-2 0v4.88h-4.88a1 1 0 0 0 0 2h4.88v4.89a1 1 0 0 0 2 0v-4.89h4.88a1 1 0 0 0 0-2zM89.81 193.16h-4.89v-4.88a1 1 0 1 0-2 0v4.88h-4.84a1 1 0 1 0 0 2H83V200a1 1 0 0 0 2 0v-4.89h4.89a1 1 0 1 0 0-2zm-37.63-36.72h5.63v5.63h-5.63zm11.25 0h5.63v5.63h-5.63zm10.81 0h5.63v5.63h-5.63z"/></g></svg>