<svg xmlns="http://www.w3.org/2000/svg" viewBox="0 0 250 250"><defs><style>.cls-1{fill:#cd1c3e}</style></defs><g id="NERO"><circle class="cls-1" cx="120.78" cy="60.64" r="8.6"/><path d="M120.78 79.24a18.6 18.6 0 1 1 18.6-18.6 18.62 18.62 0 0 1-18.6 18.6zm0-34.39a15.79 15.79 0 1 0 15.79 15.79 15.8 15.8 0 0 0-15.79-15.79z"/><path d="M210.69 213.33l-88-113.4c4.73-4.72 25.29-26 25.29-39.29a27.2 27.2 0 1 0-54.4 0c0 13.3 20.68 34.69 25.33 39.34l-21.8 38.69-12.7-16.92a2 2 0 0 0-1.76-.79A2 2 0 0 0 81 122l-47.77 91.63a2 2 0 0 0 1.77 2.93h174.1a2 2 0 0 0 1.58-3.23zM96.4 60.64a24.38 24.38 0 1 1 48.76 0c0 12-19.72 32.52-24.38 37.22-4.67-4.7-24.38-25.27-24.38-37.22zM38.31 212.56l44.81-85.87 27.4 36.53a2 2 0 0 0 3.2-2.4l-14-18.65L121 104.34l84 108.22zm-2.4-110.77h5.63v5.63h-5.63z"/><path d="M41.54 96.2h5.63v5.63h-5.63zm0 11.17h5.63V113h-5.63zm5.63-5.58h5.63v5.63h-5.63zm0-59.24h5.63v5.63h-5.63z"/><path d="M52.79 36.96h5.63v5.63h-5.63zm0 11.18h5.63v5.63h-5.63z"/><path d="M58.42 42.55h5.63v5.63h-5.63zM70.1 78.38h5.63v5.63H70.1zm5.63-5.58h5.63v5.63h-5.63zm0 11.17h5.63v5.63h-5.63z"/><path d="M81.35 78.38h5.63v5.63h-5.63zm66.16 8.77h5.63v5.63h-5.63zm5.63-5.59h5.63v5.63h-5.63zm0 11.18h5.63v5.63h-5.63zm5.63-5.59h5.63v5.63h-5.63zm.46-47.37h5.63v5.63h-5.63zm5.63-5.59h5.63v5.63h-5.63zm0 11.17h5.63v5.63h-5.63zm5.63-5.58h5.63v5.63h-5.63zM180 64.67h5.63v5.63H180zm5.63-5.59h5.63v5.63h-5.63zm0 11.18h5.63v5.63h-5.63zm5.63-5.59h5.63v5.63h-5.63z"/><path class="cls-1" d="M208.92 122.31a8.06 8.06 0 0 0-6.83 12.34l-37.87 42.43a8 8 0 0 0-3.79-1 8.07 8.07 0 0 0-3.82 1l-12.33-13.7a8.07 8.07 0 1 0-13.38-.11l-25.13 27a8 8 0 0 0-4.13-1.15 8.09 8.09 0 1 0 6.85 3.82l25.2-27.12a8.07 8.07 0 0 0 7.76.07l12.32 13.7a8.07 8.07 0 1 0 13.3 0l37.75-42.31a8 8 0 0 0 4.1 1.13 8.07 8.07 0 1 0 0-16.13zm-3.07 11a4.21 4.21 0 0 1-1.18-2.92 4.27 4.27 0 1 1 1.28 3 .52.52 0 0 0-.1-.09zm-41.17 50.89a4.29 4.29 0 1 1-1.48-3.2.71.71 0 0 0 .14.1 4.25 4.25 0 0 1 1.34 3.09zm-31.31-25.35a4.26 4.26 0 1 1 4.26 4.25 4.26 4.26 0 0 1-4.26-4.26zm-28.69 35.43a4.21 4.21 0 0 1 1.21 3 4.25 4.25 0 1 1-1.25-3z"/></g></svg>