<svg xmlns="http://www.w3.org/2000/svg" viewBox="0 0 250 250"><path d="M147.66 127.31H85a2.5 2.5 0 1 1 0-5h62.71a2.5 2.5 0 1 1 0 5zM167 81.94V48a1.47 1.47 0 0 0 0-.36 1.63 1.63 0 0 0-.27-.65l-.1-.12-.12-.14a.81.81 0 0 0-.14-.12l-.13-.1-.15-.08-.15-.08h-.16l-.17-.05a2 2 0 0 0-.35 0H85a1.47 1.47 0 0 0-.36 0h-.07l-.26.08h-.1l-.2.11-.08.07a.9.9 0 0 0-.19.15l-.08.1a1.07 1.07 0 0 0-.14.16 1.79 1.79 0 0 0-.27.65 2.19 2.19 0 0 0 0 .36v33.96a2.19 2.19 0 0 0 0 .36 1.77 1.77 0 0 0 .36.74l.07.09a1.63 1.63 0 0 0 .34.3 1.56 1.56 0 0 0 .37.17h.11a1.63 1.63 0 0 0 .45.06h80.23a1.74 1.74 0 0 0 .45-.06h.1a1.63 1.63 0 0 0 .38-.17 1.63 1.63 0 0 0 .34-.3l.07-.09a1.64 1.64 0 0 0 .35-.74 1.47 1.47 0 0 0 .13-.36zM86.73 50.68L120.5 65 86.73 79.26zm7-.9h62.69L125.06 63zm31.33 17.12l31.35 13.27H93.72zm4.57-1.9l33.76-14.29v28.55zm-6.4 94.53a1.1 1.1 0 0 0 0-.18v-.14a.88.88 0 0 0 0-.15 1.31 1.31 0 0 0 0-.15c0-.05 0-.09-.07-.13a1.3 1.3 0 0 0-.1-.15l-.07-.07a.74.74 0 0 0-.12-.13.63.63 0 0 0-.12-.1l-.12-.09-.14-.07-.15-.07H84.32l-.14.07-.14.07-.13.09-.12.1-.12.13-.06.07-.09.15s0 .08-.07.13l-.06.14v28.71a.43.43 0 0 0 0 .05v.48l.06.14c0 .05 0 .09.07.13l.09.15v.06l.16.17.11.08.18.12.11.06.24.08h.09a1.86 1.86 0 0 0 .34 0h36.72a2 2 0 0 0 .35 0h.09l.23-.08.11-.06.19-.12.1-.09a1.21 1.21 0 0 0 .16-.16l.06-.06.1-.15s0-.08.07-.13a1.31 1.31 0 0 0 0-.15.88.88 0 0 0 0-.15v-.14a1.1 1.1 0 0 0 0-.18v-28.28zm-36.72 3.29l14.08 10.81-14.08 10.81zm3.15-1.66h27.18l-13.59 10.43zm13.59 14.51l13.59 10.43H89.66zm2.66-2L120 162.82v21.62z" fill="#cd1c3e"/><path d="M166.93 35.52H83.07a6 6 0 0 0-6 6v160a13 13 0 0 0 13 13h69.8a13 13 0 0 0 13-13V41.5a6 6 0 0 0-5.94-5.98zm-50.62 3.2h19.88a1.48 1.48 0 0 1 0 3h-19.88a1.48 1.48 0 0 1 0-3zm-4.62.23a1.25 1.25 0 1 1-1.25 1.25 1.25 1.25 0 0 1 1.25-1.2zm14.56 173.57a7.68 7.68 0 1 1 7.68-7.68 7.68 7.68 0 0 1-7.68 7.68zm43.69-17.47H80.06V43.11h89.88z"/><path d="M121.61 115.07H84.89a1.55 1.55 0 0 1-1.55-1.55V87.64a1.54 1.54 0 0 1 1.55-1.55h36.72a1.55 1.55 0 0 1 1.56 1.55v25.88a1.56 1.56 0 0 1-1.56 1.55zM86.44 112h33.62V89.19H86.44zm77.99 3.07h-36.72a1.55 1.55 0 0 1-1.55-1.55V87.64a1.54 1.54 0 0 1 1.55-1.55h36.72a1.55 1.55 0 0 1 1.57 1.55v25.88a1.56 1.56 0 0 1-1.57 1.55zM129.26 112h33.62V89.19h-33.62zm35.91 22.73H85a1.55 1.55 0 0 1 0-3.1h80.22a1.55 1.55 0 1 1 0 3.1zm0 7.99H85a1.56 1.56 0 0 1 0-3.11h80.22a1.56 1.56 0 0 1 0 3.11zm-17.51 7.99H85a1.56 1.56 0 0 1 0-3.11h62.71a1.56 1.56 0 0 1 0 3.11zm16.77 12.69h-35.72a1.55 1.55 0 1 1 0-3.1h35.72a1.55 1.55 0 1 1 0 3.1zm0 7.25h-35.72a1.56 1.56 0 0 1 0-3.11h35.72a1.56 1.56 0 1 1 0 3.11zm0 7.24h-35.72a1.55 1.55 0 0 1 0-3.1h35.72a1.55 1.55 0 1 1 0 3.1zm-22.9 7.25h-12.82a1.56 1.56 0 0 1 0-3.11h12.82a1.56 1.56 0 0 1 0 3.11z" fill="#1d1e1b"/></svg>