<svg xmlns="http://www.w3.org/2000/svg" viewBox="0 0 250 250"><path d="M157.29 120.86c-3.16-2.71-21.56-23.17-26.92-48.33l-.26-1.19h-4.62v36.33h-.38V71.34h-4.62l-.25 1.19c-5.37 25.16-23.76 45.62-26.93 48.34a3 3 0 0 0-.52 3.9c7.38 11 13.18 25 15.26 30.32h-3.5a1.31 1.31 0 0 0-1.31 1.32v7.49a1.31 1.31 0 0 0 1.31 1.31h41.23a1.32 1.32 0 0 0 1.32-1.31v-7.49a1.32 1.32 0 0 0-1.32-1.32h-3.22c2.07-5.3 7.87-19.27 15.25-30.32a3 3 0 0 0-.52-3.91zm-26.85-6.22a5.23 5.23 0 1 1-3.89-3.9 5.23 5.23 0 0 1 3.89 3.9zm8.9 40.45h-28.07c-1.62-4.2-7.6-19.16-15.46-31.14a1.13 1.13 0 0 1 .19-1.45c5.7-5.37 20.28-23.77 26.13-45v30.85a8.17 8.17 0 1 0 6.38 0V77.48c5.85 21.24 20.43 39.64 26.11 45a1.14 1.14 0 0 1 .18 1.46c-7.87 11.99-13.8 26.95-15.46 31.15z" fill="#cd1c3e"/><path d="M158.74 100.32l-1.42-.7a1 1 0 0 0-1.32.44c-.27.5-.55 1-.84 1.48a1 1 0 0 0 .31 1.36l1.33.85a1 1 0 0 0 1.39-.32c.35-.57.68-1.16 1-1.75a1 1 0 0 0-.45-1.36zm-5.46 5.68a1 1 0 0 0-1.39.15c-.37.43-.74.86-1.13 1.28a1 1 0 0 0 0 1.39l1.13 1.11a1 1 0 0 0 1.42 0c.46-.49.91-1 1.34-1.5a1 1 0 0 0-.16-1.43zm-58.55-5.89a1 1 0 0 0-1.33-.43l-1.41.7a1 1 0 0 0-.44 1.36q.47.89 1 1.74a1 1 0 0 0 1.39.32l1.33-.85a1 1 0 0 0 .31-1.36c-.3-.49-.58-.98-.85-1.48zm4.12 6.05a1 1 0 0 0-1.39-.14l-1.24 1a1 1 0 0 0-.15 1.42c.43.51.88 1 1.34 1.51a1 1 0 0 0 1.43 0l1.12-1.1a1 1 0 0 0 0-1.4c-.37-.45-.75-.85-1.11-1.29zM92.49 95c-.18-.53-.35-1.08-.5-1.62a1 1 0 0 0-1.21-.71l-1.53.33a1 1 0 0 0-.72 1.24q.27 1 .6 1.92a1 1 0 0 0 1.29.6l1.48-.55a1 1 0 0 0 .59-1.21zm68.98-2l-1.53-.39a1 1 0 0 0-1.21.7c-.15.55-.32 1.09-.5 1.63a1 1 0 0 0 .59 1.27l1.48.55a1 1 0 0 0 1.29-.61c.22-.63.42-1.28.6-1.92a1 1 0 0 0-.72-1.23zM61.22 55.76a9.38 9.38 0 1 1 9.37-9.37 9.38 9.38 0 0 1-9.37 9.37zm0-14.75a5.38 5.38 0 1 0 5.37 5.38A5.38 5.38 0 0 0 61.22 41zm128.26 14.75a9.38 9.38 0 1 1 9.37-9.37 9.38 9.38 0 0 1-9.37 9.37zm0-14.75a5.38 5.38 0 1 0 5.37 5.38 5.38 5.38 0 0 0-5.37-5.39z"/><path d="M214.83 70a6.82 6.82 0 0 0-6.81-6.8h-50.44a38.46 38.46 0 0 0-17.65-14.78h43.28c1.11 0-2-.9-2-2s3.11-2 2-2h-51.36v-3.66a1 1 0 0 0-1-1h-12a1 1 0 0 0-1 1v3.63h-51.1c-1.1 0 2 .89 2 2s-3.1 2-2 2h44a38.46 38.46 0 0 0-17.63 14.78H42A6.82 6.82 0 0 0 35.17 70v102.54a2.48 2.48 0 0 0 0 .27 1.79 1.79 0 0 0 0 .23v10.76a11 11 0 0 0 10.93 10.94H110c-1.4 3.16-5.06 9-13 9a2 2 0 0 0-2 2V211a2 2 0 0 0 2 2h56.27a2 2 0 0 0 2-2v-5.25a2 2 0 0 0-2-2c-8 0-11.64-5.84-13-9h63.68a11 11 0 0 0 10.93-10.94V173a1.79 1.79 0 0 0 0-.23 2.48 2.48 0 0 0 0-.27zm-164-2.8h40a38 38 0 0 0-3.8 16.6 38.88 38.88 0 0 0 .26 4.47 1 1 0 0 0 1.14.86l1.57-.25a1 1 0 0 0 .85-1.09c0-.32-.07-.63-.09-.94-.09-1-.14-2-.14-3.08a34.47 34.47 0 0 1 4.24-16.6 34 34 0 0 1 2.56-4 34.78 34.78 0 0 1 20.4-13.27v2.86a1 1 0 0 0 1 1h12a1 1 0 0 0 1-1v-3.07a34.72 34.72 0 0 1 21.4 13.48 34 34 0 0 1 2.56 4 34.47 34.47 0 0 1 4.24 16.6c0 1-.05 2-.13 3.06 0 .31-.06.63-.1.94a1 1 0 0 0 .85 1.09l1.57.22a1 1 0 0 0 1.13-.86c0-.36.08-.72.11-1.08.1-1.1.15-2.22.15-3.33a38 38 0 0 0-3.8-16.6H208a2.8 2.8 0 0 1 2.81 2.8v100.53h-160zM39.17 70A2.8 2.8 0 0 1 42 67.17h6.85v2.22h-2.17a.71.71 0 0 0-.71.71.7.7 0 0 0 .71.7h2.15v3.3h-5.32a1 1 0 1 0 0 2h5.32v4.29h-2.15a.71.71 0 0 0-.71.71.7.7 0 0 0 .71.7h2.15v3.3h-5.32a1 1 0 1 0 0 2h5.32v4.29h-2.15a.71.71 0 0 0-.71.71.7.7 0 0 0 .71.7h2.15v3.3h-5.32a1 1 0 1 0 0 2h5.32v4.29h-2.15a.71.71 0 0 0-.71.71.7.7 0 0 0 .71.7h2.15v3.3h-5.32a1 1 0 1 0 0 2h5.32v4.29h-2.15a.71.71 0 0 0-.71.71.7.7 0 0 0 .71.7h2.15v3.3h-5.32a1 1 0 1 0 0 2h5.32v4.29h-2.15a.71.71 0 0 0-.71.71.7.7 0 0 0 .71.7h2.15v3.3h-5.32a1 1 0 1 0 0 2h5.32v4.29h-2.15a.71.71 0 0 0-.71.71.7.7 0 0 0 .71.7h2.15v3.3h-5.32a1 1 0 1 0 0 2h5.32v4.29h-2.15a.71.71 0 0 0-.71.71.7.7 0 0 0 .71.7h2.15v3.3h-5.32a1 1 0 1 0 0 2h5.32v4.29h-2.15a.71.71 0 0 0-.71.71.7.7 0 0 0 .71.7h2.15v3.3h-5.32a1 1 0 1 0 0 2h5.32v2.26h-2.15a.71.71 0 1 0 0 1.42h2.15v2.76h-9.66zm112.06 137.63V209H99v-1.37c8.76-.91 13.44-7.72 15.14-12.39h22c1.65 4.67 6.33 11.48 15.09 12.39zm59.6-23.83a7 7 0 0 1-6.94 6.95H46.11a7 7 0 0 1-6.94-6.95V175h171.66z"/></svg>