<svg xmlns="http://www.w3.org/2000/svg" viewBox="0 0 250 250"><defs><style>.cls-1{fill:#cd1c3e}</style></defs><g id="COLORE"><path class="cls-1" d="M124.81 151.35a26.55 26.55 0 1 1 26.54-26.54 26.58 26.58 0 0 1-26.54 26.54zm0-50.09a23.55 23.55 0 1 0 23.54 23.55 23.58 23.58 0 0 0-23.54-23.55z"/><path class="cls-1" d="M124.81 216.52a91.72 91.72 0 1 1 91.71-91.71 91.81 91.81 0 0 1-91.71 91.71zm0-176.39a84.68 84.68 0 1 0 84.67 84.68 84.78 84.78 0 0 0-84.67-84.68z"/><path class="cls-1" d="M133.86 114.13H129v-4.88a1 1 0 0 0-2 0v4.88h-4.89a1 1 0 0 0 0 2H127V121a1 1 0 0 0 2 0v-4.9h4.88a1 1 0 1 0 0-2zm-30.6-53.21h-7.53v-7.53a1.52 1.52 0 1 0-3 0v7.53h-7.55a1.51 1.51 0 1 0 0 3h7.52v7.53a1.52 1.52 0 1 0 3 0v-7.51h7.53a1.51 1.51 0 0 0 0-3z"/></g><g id="NERO"><path d="M124.81 176.89a52.09 52.09 0 1 1 52.08-52.08 52.15 52.15 0 0 1-52.08 52.08zm0-100.17a48.09 48.09 0 1 0 48.08 48.09 48.14 48.14 0 0 0-48.08-48.09z"/><path d="M124.83 128.13a2.78 2.78 0 0 1 4.11-2.77l34.2 19.16 32.38 18.14a2.78 2.78 0 0 1-.83 5.15l-27.5 5.29 24.55 36.35a1.38 1.38 0 0 1-.38 1.92l-10.42 7A1.4 1.4 0 0 1 179 218l-24.54-36.35-14.84 23.23a2.78 2.78 0 0 1-5.09-1.14L129.82 167z"/></g></svg>