<svg xmlns="http://www.w3.org/2000/svg" viewBox="0 0 250 250"><defs><style>.cls-1{fill:#cd1c3e}</style></defs><g id="NERO"><path class="cls-1" d="M170.3 94.65a1.33 1.33 0 0 1-1.21-.79 18.55 18.55 0 0 0-11.53-10.21 1.32 1.32 0 0 1 .76-2.52 21.17 21.17 0 0 1 13.18 11.66 1.32 1.32 0 0 1-.67 1.74 1.28 1.28 0 0 1-.53.12z"/><path d="M71.43 116.85h15.5a1 1 0 0 1 1 1v25h-17.5v-25a1 1 0 0 1 1-1zM96.15 104h15.5a1 1 0 0 1 1 1v37.8h-17.5V105a1 1 0 0 1 1-1z"/><path d="M170.29 144.26h-107a1.41 1.41 0 0 1 0-2.82h107a1.41 1.41 0 0 1 0 2.82z"/><path d="M212.83 161.46H37.17a2 2 0 0 1-2-2V56.89a6.82 6.82 0 0 1 6.83-6.8h166a6.82 6.82 0 0 1 6.81 6.8v102.57a2 2 0 0 1-1.98 2zm-173.66-4h171.66V56.89a2.81 2.81 0 0 0-2.81-2.8H42a2.81 2.81 0 0 0-2.81 2.8z"/><circle cx="48.37" cy="59.12" r="2.02"/><circle cx="54.33" cy="59.12" r="2.02"/><circle cx="60.3" cy="59.12" r="2.02"/><rect x="76.15" y="57.49" width="114.96" height="3.27" rx="1.63"/><path d="M161.61 127.78v13.61h-16.53V128c-.33-.1-.65-.19-1-.3v14.65h18.47v-14.9c-.29.11-.61.23-.94.33zm42.28 53.88H46.11a10.94 10.94 0 0 1-10.93-10.93V160a2 2 0 0 1 2-2h175.65a2 2 0 0 1 2 2v10.77a10.94 10.94 0 0 1-10.94 10.89zM39.17 162v8.77a6.94 6.94 0 0 0 6.94 6.94h157.78a6.94 6.94 0 0 0 6.94-6.94V162z"/><path d="M153.23 199.91H97a2 2 0 0 1-2-2v-5.25a2 2 0 0 1 2-2c10.83 0 13.7-10.88 13.73-11a2 2 0 0 1 1.93-1.51h24.94a2 2 0 0 1 1.93 1.5c.12.47 3 11 13.74 11a2 2 0 0 1 2 2v5.25a2 2 0 0 1-2.04 2.01zm-54.28-4h52.28v-1.36c-8.76-.91-13.44-7.73-15.14-12.4h-22c-1.7 4.67-6.38 11.49-15.14 12.4zM137 82.81h-.67a24 24 0 0 0-2.69 3h2.63l-.33 31.76a23.87 23.87 0 0 0 2.93 2.48l.41-34.75a2.41 2.41 0 0 0-2.28-2.49z"/><path d="M136.37 123.82v18h-15.5v-52.7h5.68c.29-.69.61-1.35 1-2h-6.63a2 2 0 0 0-2 2v54.73h19.5v-18.73c-.73-.41-1.42-.84-2.05-1.3zM164.84 96h-21.68a1.09 1.09 0 0 0-1.16 1v25a24.14 24.14 0 0 0 3 1.28V99h18v23.39a24.13 24.13 0 0 0 3-1.63V97a1.09 1.09 0 0 0-1.16-1z"/><path class="cls-1" d="M185.89 145.32l-13.67-23.62A28.81 28.81 0 1 0 166 126l13.36 23.11a2 2 0 0 0 2.74.73l3.05-1.76a2 2 0 0 0 .74-2.76zm-57.14-44.93A24.22 24.22 0 1 1 153 124.6a24.25 24.25 0 0 1-24.25-24.21z"/></g></svg>