<svg xmlns="http://www.w3.org/2000/svg" viewBox="0 0 250 250"><path d="M113.69 210.46H43a2 2 0 0 1-1.48-.66 2 2 0 0 1-.51-1.55l2.19-21.55a2 2 0 0 1 2-1.8h66.3a2 2 0 0 1 2 1.8l2.19 21.55a2 2 0 0 1-.51 1.55 2 2 0 0 1-1.49.66zm-68.47-4h66.25l-1.78-17.56H47z"/><path d="M106.93 188.9H49.76a2 2 0 0 1-1.6-.8 2 2 0 0 1-.32-1.76l2.8-9.72a12.78 12.78 0 0 1 12.22-9.19h31a12.78 12.78 0 0 1 12.23 9.2l2.8 9.71a2 2 0 0 1-.32 1.76 2 2 0 0 1-1.64.8zm-54.51-4h51.85l-2.07-7.16a8.75 8.75 0 0 0-8.38-6.31h-31a8.75 8.75 0 0 0-8.37 6.3z"/><path d="M95.56 170.43H61.13a2 2 0 0 1-2-2v-51.28a2 2 0 0 1 2-2h34.43a2 2 0 0 1 2 2v51.28a2 2 0 0 1-2 2zm-32.43-4h30.43v-47.28H63.13z"/><path d="M106.18 118.15H50.51a2 2 0 0 1-2-2v-12.58a2 2 0 0 1 2-2h55.67a2 2 0 0 1 2 2v12.58a2 2 0 0 1-2 2zm-53.67-4h51.67v-8.58H52.51z"/><path d="M99.48 104.78H57.21a2 2 0 0 1-2-2V90.21a2 2 0 0 1 2-2h42.27a2 2 0 0 1 2 2v12.57a2 2 0 0 1-2 2zm-40.27-4h38.27v-8.57H59.21z"/><path d="M94.88 92.21H61.81a2 2 0 0 1-1.92-1.45l-7.64-26.9a2 2 0 0 1 1.92-2.54h48.35a2 2 0 0 1 1.92 2.54l-7.64 26.9a2 2 0 0 1-1.92 1.45zm-31.55-4h30l6.51-22.89H56.82zM207 210.46h-83.6a2 2 0 0 1-2-2v-18.71a9.37 9.37 0 0 1 1.16-4.56c3.73-6.66 12.65-10 17.34-11a4.09 4.09 0 0 0 1.68-.63 28.83 28.83 0 0 1-7.25-9.92 16.93 16.93 0 0 1 3.3-18.64c3.24-3.24 7.34-5.31 11.3-7.31a51 51 0 0 0 8.45-4.95 14 14 0 0 0 5.52-10 25.82 25.82 0 0 1-5.05 2.93 4.27 4.27 0 0 1-3.74-.07c-.53-.28-2.69-.81-7-.81-1.9 0-2.06.49-2.54 1.92a4.72 4.72 0 0 1-2.84 3.45c-3.48 1.16-12-2.36-14.1-5.79-.41-.69-1.67-2.78-.6-10.88a7.15 7.15 0 0 1 2.72-4.74l12.42-9.63v-4A5.67 5.67 0 0 1 144 91c2.83-2.58 8.21-6.66 14.44-7.24l-.75-4.92v-.18a4.45 4.45 0 0 1 1.82-3.78c1.82-1.26 4.46-1.09 8.1.53.86.38 1.9.81 3.06 1.28 9 3.67 25.68 10.49 33.48 27.06.36.87 8 19.64-1.93 43.65a32.16 32.16 0 0 1-4.49 7.71c-4.15 5.29-5.82 8.44-6 9.62-.4 2.81.63 3.85 2.62 5.6l1 .84c3.67 3.07 12.24 10.24 13.51 16.21a6.71 6.71 0 0 1 .12 1.3v19.79a2 2 0 0 1-1.98 1.99zm-81.6-4H205v-17.79a2.56 2.56 0 0 0 0-.47c-1-4.62-9.39-11.66-12.15-14l-1.07-.9c-2.08-1.82-4.67-4.09-4-9.17.34-2.33 2.63-6.21 6.81-11.53a28.4 28.4 0 0 0 3.93-6.76 61.09 61.09 0 0 0 4.48-28.69 45.15 45.15 0 0 0-2.52-11.79c-7.09-15.08-22.86-21.52-31.33-25a96.03 96.03 0 0 1-3.17-1.33c-3.31-1.46-4.19-.9-4.2-.89s-.09.17-.1.23l1.07 7a2 2 0 0 1-2.1 2.3c-6-.39-11.75 4.24-13.95 6.24a1.73 1.73 0 0 0-.54 1.25v5a2 2 0 0 1-.78 1.58L132.21 112a3.18 3.18 0 0 0-1.2 2.1c-.7 5.3-.29 7.71.06 8.3 1.22 2 7.82 4.44 9.35 4.07a5.86 5.86 0 0 0 .36-.93c.55-1.63 1.55-4.66 6.34-4.66 2.4 0 6.73.17 8.84 1.27a.37.37 0 0 0 .25 0c3.3-1.47 5.72-3.32 6.64-5.07a2 2 0 0 1 3.71.46c.11.45 2.67 11.17-6.73 18.45a55.66 55.66 0 0 1-9.09 5.35c-3.86 1.94-7.5 3.78-10.27 6.57a12.89 12.89 0 0 0-2.47 14.17 25.34 25.34 0 0 0 7.13 9.3 2 2 0 0 1 .68 1.1 4.22 4.22 0 0 1-.64 3.06 6.62 6.62 0 0 1-4.48 2.62c-3.74.74-11.61 3.59-14.63 9a5.39 5.39 0 0 0-.65 2.6z"/><path d="M207 191.75h-83.6a2 2 0 1 1 0-4H207a2 2 0 0 1 0 4z"/><path d="M91.67 52.58H80.53V41.43a1.89 1.89 0 0 0-1.89-1.89h-.59a1.89 1.89 0 0 0-1.89 1.89v11.15H65a1.9 1.9 0 0 0-1.9 1.89v.59A1.9 1.9 0 0 0 65 57h11.16v11.09A1.89 1.89 0 0 0 78.05 70h.59a1.89 1.89 0 0 0 1.89-1.89V57h11.14a1.89 1.89 0 0 0 1.89-1.89v-.59a1.89 1.89 0 0 0-1.89-1.94z" fill="#cd1c3e"/></svg>