<svg xmlns="http://www.w3.org/2000/svg" viewBox="0 0 250 250"><path d="M160.94 123.16a3 3 0 0 1 0 5.21l-28.48 16.45L104 161.26a3 3 0 0 1-4.51-2.6V92.87a3 3 0 0 1 4.51-2.6l28.49 16.44z" fill="#cd1c3e"/><path d="M212.83 187.66H37.17a2.12 2.12 0 0 1-2.12-2.13V64.46a2.12 2.12 0 0 1 2.12-2.12h175.66a2.12 2.12 0 0 1 2.17 2.12v121.07a2.12 2.12 0 0 1-2.17 2.13zM39.3 183.41h171.4V66.59H39.3z"/><path d="M66 88.37H46.11a1.5 1.5 0 0 1-1.5-1.5V72.4a1.5 1.5 0 0 1 1.5-1.5H66a1.5 1.5 0 0 1 1.5 1.5v14.47a1.5 1.5 0 0 1-1.5 1.5zm-18.41-3h16.93V73.9H47.61zM66 111H46.11a1.5 1.5 0 0 1-1.5-1.5V95a1.5 1.5 0 0 1 1.5-1.5H66a1.5 1.5 0 0 1 1.5 1.5v14.47A1.5 1.5 0 0 1 66 111zm-18.41-3h16.93V96.54H47.61zM66 133.65H46.11a1.5 1.5 0 0 1-1.5-1.5v-14.47a1.5 1.5 0 0 1 1.5-1.5H66a1.5 1.5 0 0 1 1.5 1.5v14.47a1.5 1.5 0 0 1-1.5 1.5zm-18.41-3h16.93v-11.47H47.61zM66 156.29H46.11a1.5 1.5 0 0 1-1.5-1.5v-14.47a1.5 1.5 0 0 1 1.5-1.5H66a1.5 1.5 0 0 1 1.5 1.5v14.47a1.5 1.5 0 0 1-1.5 1.5zm-18.41-3h16.93v-11.47H47.61zM66 178.93H46.11a1.5 1.5 0 0 1-1.5-1.5V163a1.5 1.5 0 0 1 1.5-1.5H66a1.5 1.5 0 0 1 1.5 1.5v14.47a1.5 1.5 0 0 1-1.5 1.46zm-18.41-3h16.93v-11.47H47.61zm156.7-87.56h-19.91a1.5 1.5 0 0 1-1.5-1.5V72.4a1.5 1.5 0 0 1 1.5-1.5h19.91a1.5 1.5 0 0 1 1.5 1.5v14.47a1.5 1.5 0 0 1-1.5 1.5zm-18.41-3h16.91V73.9h-16.91zM204.29 111h-19.91a1.5 1.5 0 0 1-1.5-1.5V95a1.5 1.5 0 0 1 1.5-1.5h19.91a1.5 1.5 0 0 1 1.5 1.5v14.47a1.5 1.5 0 0 1-1.5 1.53zm-18.41-3h16.91V96.54h-16.91zm18.41 25.65h-19.91a1.5 1.5 0 0 1-1.5-1.5v-14.47a1.5 1.5 0 0 1 1.5-1.5h19.91a1.5 1.5 0 0 1 1.5 1.5v14.47a1.5 1.5 0 0 1-1.5 1.5zm-18.41-3h16.91v-11.47h-16.91zm18.41 25.64h-19.91a1.5 1.5 0 0 1-1.5-1.5v-14.47a1.5 1.5 0 0 1 1.5-1.5h19.91a1.5 1.5 0 0 1 1.5 1.5v14.47a1.5 1.5 0 0 1-1.5 1.5zm-18.41-3h16.91v-11.47h-16.91zm18.41 25.64h-19.91a1.5 1.5 0 0 1-1.5-1.5V163a1.5 1.5 0 0 1 1.5-1.5h19.91a1.5 1.5 0 0 1 1.5 1.5v14.47a1.5 1.5 0 0 1-1.5 1.46zm-18.41-3h16.91v-11.47h-16.91z"/></svg>