<svg xmlns="http://www.w3.org/2000/svg" viewBox="0 0 250 250"><path d="M146.39 123.07a2.84 2.84 0 0 1 0 4.93l-19.2 11.09L108 150.17a2.85 2.85 0 0 1-4.28-2.47v-44.33a2.85 2.85 0 0 1 4.28-2.47l19.19 11.1z" fill="#cd1c3e"/><path d="M112.72 71.15a1.56 1.56 0 0 1-1.56-1.56V56.77a1.56 1.56 0 0 1 3.11 0v12.82a1.56 1.56 0 0 1-1.55 1.56zm54.44 122.22a1.55 1.55 0 0 1-1.55-1.55V179a1.55 1.55 0 0 1 3.1 0v12.83a1.55 1.55 0 0 1-1.55 1.54zm-81.47-15a1.56 1.56 0 0 1-1.56-1.55V164a1.56 1.56 0 0 1 3.11 0v12.83a1.56 1.56 0 0 1-1.55 1.54z"/><path d="M194.49 61.85a1.12 1.12 0 0 0 0-.32.37.37 0 0 0 0-.11 2.86 2.86 0 0 0-.15-.41 2.2 2.2 0 0 0-.21-.32.94.94 0 0 0-.1-.1l-.14-.16-28.6-24.66-.1-.08-.1-.07a2 2 0 0 0-1-.33H57.5a2 2 0 0 0-2 2v175.47a2 2 0 0 0 2 2h135a2 2 0 0 0 2-2V61.91s-.01-.04-.01-.06zm-6-.77l-12.66 4-7.53-21.42zm2 149.68H59.5V39.24h103l10.2 29a2 2 0 0 0 2.49 1.24l15.32-4.84z"/><path d="M158.62 101.65l3.85-3.85a1.08 1.08 0 0 0 0-1.54 1.09 1.09 0 0 0-1.55 0l-3.84 3.84-3.85-3.84a1.09 1.09 0 0 0-1.55 0 1.08 1.08 0 0 0 0 1.54l3.85 3.85-3.85 3.85a1.1 1.1 0 1 0 1.55 1.55l3.85-3.85 3.84 3.85a1.1 1.1 0 1 0 1.55-1.55zM79.63 120.9l2.5-2.49a.71.71 0 0 0-1-1l-2.49 2.5-2.5-2.5a.71.71 0 0 0-1 1l2.49 2.49-2.49 2.5a.71.71 0 0 0 1 1l2.5-2.49 2.49 2.49a.71.71 0 0 0 1-1zm72.04 29.38l2.5-2.5a.71.71 0 0 0-1-1l-2.5 2.49-2.49-2.49a.71.71 0 0 0-1 1l2.5 2.5-2.5 2.49a.71.71 0 0 0 1 1l2.49-2.5 2.5 2.5a.71.71 0 0 0 1-1zM93.32 81.09h-5.44v-5.44a1.1 1.1 0 1 0-2.19 0v5.44h-5.45a1.1 1.1 0 0 0 0 2.19h5.45v5.44a1.1 1.1 0 1 0 2.19 0v-5.44h5.44a1.1 1.1 0 0 0 0-2.19zM137.73 164h-5.44v-5.44a1.1 1.1 0 0 0-2.19 0V164h-5.44a1.1 1.1 0 1 0 0 2.19h5.44v5.45a1.1 1.1 0 0 0 2.19 0v-5.45h5.44a1.1 1.1 0 0 0 0-2.19zm29.43-28.74a5.73 5.73 0 1 1 5.73-5.73 5.74 5.74 0 0 1-5.73 5.73zm0-8.58a2.86 2.86 0 1 0 2.86 2.85 2.86 2.86 0 0 0-2.86-2.85zm-31.67-38.77a5.73 5.73 0 1 1 5.72-5.72 5.73 5.73 0 0 1-5.72 5.72zm0-8.58a2.86 2.86 0 1 0 2.86 2.86 2.86 2.86 0 0 0-2.86-2.86zm-22.77 107.51a5.73 5.73 0 1 1 5.73-5.73 5.74 5.74 0 0 1-5.73 5.73zm0-8.59a2.86 2.86 0 1 0 2.86 2.86 2.86 2.86 0 0 0-2.86-2.86z"/></svg>