<svg xmlns="http://www.w3.org/2000/svg" viewBox="0 0 250 250"><defs><style>.cls-1{fill:#cd1c3e}</style></defs><g id="COLORE"><path class="cls-1" d="M191.89 126.74a3.45 3.45 0 0 1 0 6l-32.61 18.83-32.61 18.83a3.45 3.45 0 0 1-5.17-3V92.08a3.45 3.45 0 0 1 5.17-3l32.61 18.83z"/><path class="cls-1" d="M125.27 97.74H98.2a1.5 1.5 0 0 1 0-3h27.07a1.5 1.5 0 0 1 0 3zm-32.5 0H79a1.5 1.5 0 0 1 0-3h13.8a1.5 1.5 0 0 1 0 3zm32.5 58.61H93.49a1.5 1.5 0 1 1 0-3h31.78a1.5 1.5 0 1 1 0 3zm-38.14 0H70.92a1.5 1.5 0 1 1 0-3h16.21a1.5 1.5 0 0 1 0 3zm38.14-50.24H75.9a1.5 1.5 0 0 1 0-3h49.37a1.5 1.5 0 0 1 0 3zm-54.35 0h-7.67a1.5 1.5 0 0 1 0-3h7.67a1.5 1.5 0 0 1 0 3zm54.35 16.75H96.4a1.5 1.5 0 0 1 0-3h28.87a1.5 1.5 0 0 1 0 3zm-44.63 0h-6.72a1.5 1.5 0 0 1 0-3h6.72a1.5 1.5 0 0 1 0 3zm11.36 0h-6.72a1.5 1.5 0 0 1 0-3H92a1.5 1.5 0 0 1 0 3zM99.79 148H80.64a1.5 1.5 0 0 1 0-3h19.15a1.5 1.5 0 0 1 0 3zm22.48.47h-6.72a2 2 0 1 1 0-4h6.72a2 2 0 1 1 0 4zm-11.35-.47h-6.73a1.5 1.5 0 0 1 0-3h6.73a1.5 1.5 0 0 1 0 3zm-18.43-8.4H75.9a1.5 1.5 0 0 1 0-3h16.59a1.5 1.5 0 0 1 0 3zm30.11 0H98.25a1.5 1.5 0 0 1 0-3h24.35a1.5 1.5 0 0 1 0 3zm-51.68 0h-7.67a1.5 1.5 0 0 1 0-3h7.67a1.5 1.5 0 0 1 0 3zm54.35-25.12H96.4a1.5 1.5 0 0 1 0-3h28.87a1.5 1.5 0 0 1 0 3zm-32.78 0H88a1.5 1.5 0 0 1 0-3h4.49a1.5 1.5 0 0 1 0 3zm32.78 17.25h-9.74a2 2 0 1 1 0-4h9.74a2 2 0 1 1 0 4zm-14.22-.5h-29.3a1.5 1.5 0 0 1 0-3h29.3a1.5 1.5 0 0 1 0 3zm14.22 33.49H96.4a1.5 1.5 0 0 1 0-3h28.87a1.5 1.5 0 1 1 0 3zm-32.78 0H88a1.5 1.5 0 0 1 0-3h4.49a1.5 1.5 0 0 1 0 3z"/></g><path d="M214.55 168.7a.13.13 0 0 0 0-.06V62.23a2 2 0 0 0-2-2H37.05a2 2 0 0 0-2 2v135a2 2 0 0 0 2 2h150.86a2.1 2.1 0 0 0 .43 0l.14-.05.28-.1.15-.09a1.82 1.82 0 0 0 .23-.15l.14-.13.13-.12 24.67-28.6a.61.61 0 0 0 .07-.1l.08-.11a1.92 1.92 0 0 0 .32-1.08zm-25.83 24.51l-4-12.66 21.43-7.55zm-149.67 2v-131h171.51v103l-29 10.2a2 2 0 0 0-1.25 2.49l4.85 15.32z" id="NERO"/></svg>