<svg xmlns="http://www.w3.org/2000/svg" viewBox="0 0 250 250"><defs><style>.cls-1{fill:#cd1c3e}</style></defs><g id="NERO"><circle class="cls-1" cx="170.07" cy="88.8" r="13.93"/><path class="cls-1" d="M90.91 75.75h-8.09v-8.08A1.63 1.63 0 0 0 81.19 66a1.63 1.63 0 0 0-1.62 1.63v8.08h-8.09a1.63 1.63 0 0 0 0 3.26h8.09v8.08a1.63 1.63 0 0 0 1.62 1.63 1.63 1.63 0 0 0 1.63-1.63V79h8.09a1.63 1.63 0 0 0 0-3.26z"/><path d="M176.9 218.05l-22.52-51.89s0-.09-.07-.13l-.14-.24c0-.08-.1-.16-.16-.24l-.14-.16a2.23 2.23 0 0 0-.21-.22 1.39 1.39 0 0 0-.19-.15 1.84 1.84 0 0 0-.22-.17 2.82 2.82 0 0 0-.46-.23h-.09a2.22 2.22 0 0 0-.39-.12h-1.05l-.27.06-.24.08-.15.05-.11.06-.21.11-.28.14-.17.14-.22.2a4 4 0 0 0-.32.4l-.07.14a1.73 1.73 0 0 0-.16.3l-22.52 51.89a2.9 2.9 0 0 0 2.66 4.07 2.91 2.91 0 0 0 2.67-1.75l16.95-39.05v31.89a2.91 2.91 0 1 0 5.81 0v-31.91l16.94 39.05a2.91 2.91 0 0 0 3.83 1.51 2.93 2.93 0 0 0 1.51-3.83zm-116.52-3.13a1.41 1.41 0 0 1-1-.42 1.39 1.39 0 0 1 0-2l19.22-19.2-11.22-11.23-18.74 18.74a1.4 1.4 0 0 1-2-2l19.73-19.74a1.41 1.41 0 0 1 2 0l13.21 13.23a1.42 1.42 0 0 1 .42 1 1.38 1.38 0 0 1-.42 1l-20.21 20.2a1.37 1.37 0 0 1-.99.42z"/><path d="M84.12 198.25a1.43 1.43 0 0 1-1-.41l-21.21-21.22a1.37 1.37 0 0 1-.41-1 1.39 1.39 0 0 1 .41-1l5.68-5.62a1.41 1.41 0 0 1 2 0l21.21 21.21a1.41 1.41 0 0 1 0 2l-5.68 5.69a1.41 1.41 0 0 1-1 .35zm-19.23-22.62l19.23 19.22 3.69-3.69-19.22-19.23z"/><path d="M93.37 196.48a1.36 1.36 0 0 1-1-.41L64.8 168.5a1.41 1.41 0 0 1 0-2l5.91-5.92a1.41 1.41 0 0 1 2 0l27.58 27.58a1.41 1.41 0 0 1 0 2l-5.91 5.91a1.4 1.4 0 0 1-1.01.41zm-25.59-29l25.59 25.59 3.92-3.92-25.58-25.57z"/><path d="M102.22 193.3a1.41 1.41 0 0 1-1-.42L68 159.65a1.41 1.41 0 0 1 0-2l5.91-5.91a1.41 1.41 0 0 1 2 0L109.13 185a1.43 1.43 0 0 1 .41 1 1.41 1.41 0 0 1-.41 1l-5.92 5.91a1.37 1.37 0 0 1-.99.39zM71 158.65l31.25 31.25 3.92-3.92-31.27-31.25z"/><path d="M113.52 192.6a1.4 1.4 0 0 1-1-.41l-43.83-43.84a1.41 1.41 0 0 1 0-2l5.91-5.92a1.42 1.42 0 0 1 2 0l43.84 43.85a1.41 1.41 0 0 1 0 2l-5.91 5.91a1.44 1.44 0 0 1-1.01.41zm-41.85-45.25l41.85 41.85 3.92-3.92-41.85-41.85zm98.14-15.14a41 41 0 0 1-29-70.08 2 2 0 0 1 2.8 2.87 37 37 0 0 0 50.33 54.3l2-2a2 2 0 0 1 2.83 2.83l-2 2a.52.52 0 0 1-.11.1 41 41 0 0 1-26.85 9.98z"/><path d="M210.86 91.16A41 41 0 0 0 140.92 62l-.15.12-72.33 72.33a2 2 0 0 0 0 2.83l55.16 55.15a2 2 0 0 0 1.4.57 2 2 0 0 0 1.42-.59l70.26-70.26a41 41 0 0 0 14.18-30.99zM194 119.21a37 37 0 0 1-61.23-27.77c5.89 3.63 21.06 12 36.23 12.66a1.86 1.86 0 0 0 .33 0h1.5a1.66 1.66 0 0 0 .33 0c14.73-.63 29.45-8.55 35.69-12.33A37 37 0 0 1 194 119.21zM133.87 88.8c5.51-3.39 21.23-12.22 36.2-12.51 15 .29 30.7 9.12 36.21 12.51-5.51 3.4-21.28 12.2-36.21 12.52-14.97-.32-30.69-9.12-36.2-12.52zm72.57-3.21c-6.46-3.86-20.87-11.47-35.29-12.08a1.66 1.66 0 0 0-.33 0h-1.5a1.86 1.86 0 0 0-.33 0c-14.86.63-29.73 8.7-35.87 12.43a37.06 37.06 0 0 1 73.32-.35zM125 188.19l-52.31-52.33 58.4-58.4a41.06 41.06 0 0 0 52.17 52.48zm7.62-148.37h-9.94v-9.94a2 2 0 1 0-4 0v9.94h-10a2 2 0 0 0 0 4h10v10a2 2 0 1 0 4 0v-10h9.94a2 2 0 0 0 0-4z"/><rect x="122.05" y="175.4" width="8.67" height="3.69" rx="1" transform="rotate(-45 126.385 177.24)"/><rect x="126.77" y="154.97" width="40.1" height="3.69" rx="1" transform="rotate(-45 146.812 156.808)"/><path class="cls-1" d="M65 220.08a2 2 0 0 1-1.41-.58L39.74 196a2 2 0 1 1 2.81-2.85l23.87 23.53a2 2 0 0 1-1.4 3.43z"/></g></svg>