<svg xmlns="http://www.w3.org/2000/svg" viewBox="0 0 250 250"><defs><style>.cls-1{fill:#cd1c3e}</style></defs><g id="NERO"><path class="cls-1" d="M51.61 67.54l166.22 70.99m.55-1.3l-81-34.6 81-33.79a1.41 1.41 0 0 0-1.09-2.6l-83.53 34.85-81.6-34.84a1.4 1.4 0 1 0-1.1 2.58l79.06 33.77-52 21.69v3l55.61-23.2 83.54 35.68a1.36 1.36 0 0 0 .56.11 1.41 1.41 0 0 0 .55-2.7z"/><path d="M217.83 66.13H51.61a1.4 1.4 0 0 0-1.4 1.41v32.79H53V69h163.4v68.17H78.12v2.81h139.71a1.4 1.4 0 0 0 1.4-1.4v-71a1.41 1.41 0 0 0-1.4-1.45z"/><path d="M222.54 51.68H46.89a1.4 1.4 0 0 0-1.4 1.4v47.18h2.81V63.65h172.84v104.28h-1.94a1.24 1.24 0 0 0 0-.27v-22.41a1.34 1.34 0 0 0-1.4-1.27h-79.23a1.34 1.34 0 0 0-1.41 1.27v22.41a1.24 1.24 0 0 0 0 .27h-4.94a1.24 1.24 0 0 0 0-.27v-22.41a1.34 1.34 0 0 0-1.41-1.27H78.12v2.54h51.35v21.14a1.24 1.24 0 0 0 0 .27H78.12v2.81h144.42a1.41 1.41 0 0 0 1.41-1.41V53.08a1.41 1.41 0 0 0-1.41-1.4zM57 59.49a2 2 0 1 1 2-2 2 2 0 0 1-2 2zm6 0a2 2 0 1 1 2-2 2 2 0 0 1-2 2zm6 0a2 2 0 1 1 2-2 2 2 0 0 1-2.07 2zm114.16-.39H86.41a1.64 1.64 0 0 1 0-3.27h96.68a1.64 1.64 0 0 1 0 3.27zM140 167.66v-21.14h76.45v21.14a1.24 1.24 0 0 0 0 .27h-76.51a1.24 1.24 0 0 0 .06-.27z"/><path class="cls-1" d="M65.34 149.78H30.42a1.4 1.4 0 0 1 0-2.79h34.92a1.4 1.4 0 1 1 0 2.79zm10.75-25.26v-18.9a1.23 1.23 0 0 0 0-.2.85.85 0 0 0-.16-.36.18.18 0 0 0 0-.07.8.8 0 0 0-.15-.15h-.07l-.08-.05h-45.6l-.12.06a.39.39 0 0 0-.1.08h-.05l-.08.1a1.05 1.05 0 0 0-.15.36 1.23 1.23 0 0 0 0 .2v18.9a1.23 1.23 0 0 0 0 .19.91.91 0 0 0 .2.42v.05a1 1 0 0 0 .19.16 1 1 0 0 0 .21.09h.06a1 1 0 0 0 .25 0H75.1a1 1 0 0 0 .25 0h.06a1 1 0 0 0 .21-.09 1 1 0 0 0 .19-.16v-.05a1 1 0 0 0 .2-.42 1.23 1.23 0 0 0 .08-.16zm-44.68-17.41l18.81 8-18.81 8zm3.89-.51h34.91L52.76 114zm17.46 9.54l17.45 7.39H35.3zm2.54-1.07l18.81-8V123zm-3.56 52.66v-.1a.19.19 0 0 1 0-.08v-.32l-.07-.07-.07-.06H29.91a.18.18 0 0 1-.07 0l-.06.06-.07.07a.35.35 0 0 0-.05.08v.24a.25.25 0 0 0 0 .08.38.38 0 0 0 0 .1v15.75a.31.31 0 0 0 0 .1.22.22 0 0 0 0 .08v.17a.25.25 0 0 0 0 .07.22.22 0 0 0 .05.08l.09.09.06.05.11.06h21.25l.11-.06v-.05l.09-.09a.56.56 0 0 0 0-.08v-.24a.22.22 0 0 1 0-.08v-15.85zm-20.45 1.83l7.84 6-7.84 6zm1.76-.93h15.13l-7.57 5.81zm7.56 8.08l7.57 5.81H33.05zm1.49-1.13l7.84-6v12z"/><path d="M76.07 98.66H29.38a3.34 3.34 0 0 0-3.33 3.34v89.1a7.24 7.24 0 0 0 7.24 7.23h38.87a7.24 7.24 0 0 0 7.24-7.23V102a3.34 3.34 0 0 0-3.33-3.34zm-28.19 1.79H59a.82.82 0 1 1 0 1.64H47.88a.82.82 0 1 1 0-1.64zm-2.57.12a.7.7 0 1 1-.69.7.7.7 0 0 1 .69-.7zm8.11 96.66A4.28 4.28 0 1 1 57.7 193a4.28 4.28 0 0 1-4.28 4.23zm24.33-9.73h-50v-84.61h50z"/><path d="M50.84 143H30.39a.86.86 0 0 1-.87-.86v-14.45a.87.87 0 0 1 .87-.87h20.45a.86.86 0 0 1 .86.87v14.41a.85.85 0 0 1-.86.9zm-19.59-1.73H50v-12.72H31.25zM74.69 143H54.23a.86.86 0 0 1-.86-.86v-14.45a.87.87 0 0 1 .86-.87h20.46a.87.87 0 0 1 .86.87v14.41a.86.86 0 0 1-.86.9zm-19.59-1.77h18.72v-12.68H55.1zm20 12.69H30.42a.87.87 0 0 1 0-1.73H75.1a.87.87 0 0 1 0 1.73zm0 4.44H30.42a.87.87 0 0 1 0-1.73H75.1a.87.87 0 0 1 0 1.73zm-9.76 4.45H30.42a.87.87 0 0 1 0-1.73h34.92a.87.87 0 1 1 0 1.73zm9.35 7.07h-19.9a.87.87 0 0 1 0-1.73h19.9a.87.87 0 0 1 0 1.73zm0 4.04h-19.9a.87.87 0 0 1 0-1.73h19.9a.87.87 0 0 1 0 1.73zm0 4.08h-19.9a.87.87 0 0 1 0-1.73h19.9a.87.87 0 0 1 0 1.73zm-12.76 4h-7.14a.87.87 0 0 1 0-1.73h7.14a.87.87 0 1 1 0 1.73z" fill="#1d1e1b"/></g></svg>