<svg data-name="Livello 1" xmlns="http://www.w3.org/2000/svg" viewBox="0 0 1000 1000"><path d="M393.54 253.82l249.8 607.39c.49 1.21 1.25 3.63 2.46 4.14L789 926.12a5 5 0 0 0 6.62-6.17l-251.11-729.6a5 5 0 0 0-6.7-2.92l-141.7 60a5 5 0 0 0-2.57 6.39zM162.52 371.59L393.93 755.9a11 11 0 0 0 5 4.38l121.53 52.07c8.26 3.62 16.42-5.32 12.5-13.69L307.79 305.24a9.54 9.54 0 0 0-12.66-4.79l-127.95 57.73c-5.41 2.5-7.83 8.21-4.66 13.41z" fill="#3d3d3d"/><path d="M295.93 709.81a9.27 9.27 0 0 0 12.79-7.34 1539.83 1539.83 0 0 0-.72-394.62 9.26 9.26 0 0 0-13-7.22l-129.09 57.49a9.22 9.22 0 0 0-5.37 9.7 1043.2 1043.2 0 0 1 .4 277.86 9.21 9.21 0 0 0 5.56 9.74zM797.53 77a2231.22 2231.22 0 0 1 3.09 845.91 6.18 6.18 0 0 1-8.48 4.53l-144.65-61.2a6.14 6.14 0 0 1-3.59-7c54-233.83 51.67-481.43-3.64-715.07a6.14 6.14 0 0 1 3.48-7L789 72.58a6.19 6.19 0 0 1 8.53 4.42zM397.87 760.7l139.52 59a6.19 6.19 0 0 0 8.52-4.68 1884 1884 0 0 0-1.8-625.02 6.19 6.19 0 0 0-8.61-4.6l-139.28 62a6.14 6.14 0 0 0-3.52 6.82 1299.82 1299.82 0 0 1 1.53 499.67 6.14 6.14 0 0 0 3.64 6.81z"/></svg>