<svg data-name="Livello 1" xmlns="http://www.w3.org/2000/svg" viewBox="0 0 1000 1000"><path d="M382.52 253.82l249.79 607.39c.5 1.21 1.26 3.63 2.46 4.14l143.17 60.77a5 5 0 0 0 6.62-6.17l-251.07-729.6a5 5 0 0 0-6.71-2.92l-141.69 60a4.94 4.94 0 0 0-2.57 6.39zM151.49 371.59L382.9 755.9a11.09 11.09 0 0 0 5 4.38l121.54 52.07c8.25 3.62 16.42-5.32 12.49-13.69L296.77 305.24a9.54 9.54 0 0 0-12.66-4.79l-128 57.73c-5.36 2.5-7.79 8.21-4.62 13.41z" fill="#6b6b6b"/><path d="M284.91 709.81a9.27 9.27 0 0 0 12.78-7.34 1538.93 1538.93 0 0 0-.69-394.62 9.26 9.26 0 0 0-13-7.22l-129.11 57.49a9.23 9.23 0 0 0-5.38 9.7 1042.37 1042.37 0 0 1 .4 277.86 9.23 9.23 0 0 0 5.56 9.74zM786.51 77a2231.22 2231.22 0 0 1 3.09 845.91 6.19 6.19 0 0 1-8.49 4.53l-144.64-61.2a6.14 6.14 0 0 1-3.59-7c54-233.83 51.67-481.43-3.65-715.07a6.16 6.16 0 0 1 3.48-7l145.22-64.59a6.19 6.19 0 0 1 8.58 4.42zM386.84 760.7l139.53 59a6.2 6.2 0 0 0 8.52-4.68 1884.55 1884.55 0 0 0-1.8-625.02 6.2 6.2 0 0 0-8.62-4.6l-139.27 62a6.15 6.15 0 0 0-3.53 6.82 1299.62 1299.62 0 0 1 1.54 499.67 6.14 6.14 0 0 0 3.63 6.81z" fill="#858585"/></svg>