<svg data-name="Livello 1" xmlns="http://www.w3.org/2000/svg" viewBox="0 0 1000 1000"><path d="M415.65 304.94l197.93 481.27c.39 1 1 2.87 1.95 3.28L729 837.65a3.92 3.92 0 0 0 5.24-4.89L535.27 254.64a3.93 3.93 0 0 0-5.31-2.31l-112.28 47.54a3.92 3.92 0 0 0-2.03 5.07zm-183.06 93.31L416 702.77a8.83 8.83 0 0 0 3.94 3.47l96.3 41.25c6.54 2.88 13-4.21 9.9-10.84l-178.39-391a7.55 7.55 0 0 0-10-3.79l-101.47 45.77c-4.28 1.98-6.2 6.5-3.69 10.62z" fill="#149284"/><path d="M338.3 666.25a7.34 7.34 0 0 0 10.13-5.82 1219.25 1219.25 0 0 0-.57-312.68A7.34 7.34 0 0 0 337.6 342l-102.32 45.58a7.32 7.32 0 0 0-4.26 7.68 826.41 826.41 0 0 1 .32 220.17 7.3 7.3 0 0 0 4.4 7.72zm397.46-501.4a1768 1768 0 0 1 2.44 670.27 4.9 4.9 0 0 1-6.72 3.59l-114.61-48.49a4.87 4.87 0 0 1-2.85-5.58c42.75-185.28 40.94-381.47-2.89-566.59a4.87 4.87 0 0 1 2.76-5.58L729 161.32a4.91 4.91 0 0 1 6.76 3.53zM419.07 706.57l110.56 46.77a4.91 4.91 0 0 0 6.75-3.71A1493 1493 0 0 0 535 254.34a4.9 4.9 0 0 0-6.82-3.64l-110.41 49.13a4.87 4.87 0 0 0-2.79 5.41 1029.93 1029.93 0 0 1 1.21 395.92 4.87 4.87 0 0 0 2.88 5.41z" fill="#00c1a8"/></svg>