<svg xmlns="http://www.w3.org/2000/svg" viewBox="0 0 250 250"><defs><style>.cls-3{fill:none;stroke:#df195a;stroke-linecap:round;stroke-linejoin:round;stroke-width:2.87px}</style></defs><g id="COLORE"><path d="M215.65 54.42h-5.44V49a1.1 1.1 0 0 0-2.21 0v5.44h-5.44a1.1 1.1 0 1 0 0 2.19H208v5.45a1.1 1.1 0 0 0 2.19 0v-5.47h5.44a1.1 1.1 0 1 0 0-2.19zM115.1 148.37h14.82a.78.78 0 0 0 .68-.4l2.22-3.91a.78.78 0 0 0-.67-1.16h-36.5A.77.77 0 0 0 95 144l2.22 3.91a.75.75 0 0 0 .67.4h14l-35.64 57.33a1.81 1.81 0 1 0 3.1 1.88l32.32-51.08v41.07a1.88 1.88 0 0 0 1.5 1.88 1.82 1.82 0 0 0 2.12-1.79v-41.15h.06l26.94 51a1.81 1.81 0 1 0 3.18-1.74zm21.9-12.73h-21.82v-9.88h3a2.07 2.07 0 0 0 2.06-2.07v-10.46a2 2 0 0 0-.24-1l-14.35 4.84v6.57a2.07 2.07 0 0 0 2.06 2.07h3v9.88h-20a.77.77 0 0 0-.63 1.22l2.92 3.97a.77.77 0 0 0 .63.32h40.66a.79.79 0 0 0 .63-.32l2.78-3.92a.78.78 0 0 0-.7-1.22zm-24-19.36a2.18 2.18 0 1 1-2.19 2.18 2.18 2.18 0 0 1 2.19-2.18z" fill="#cd1c3e"/><path stroke-width="3.11" fill="none" stroke="#df195a" stroke-linecap="round" stroke-linejoin="round" d="M71.44 65.04v12.82"/><circle class="cls-3" cx="102.34" cy="59.14" r="4.29"/><circle class="cls-3" cx="196.96" cy="125.68" r="4.29"/></g><path d="M165.34 121.68l3.45-3.45a1 1 0 1 0-1.39-1.39l-3.4 3.45-3.45-3.45a1 1 0 0 0-1.39 0 1 1 0 0 0 0 1.39l3.45 3.45-3.45 3.45a1 1 0 0 0 1.39 1.39l3.45-3.45 3.45 3.45a1 1 0 0 0 1.39 0 1 1 0 0 0 0-1.39zM52.59 62.11l4.07-4.06a1.15 1.15 0 0 0 0-1.63 1.16 1.16 0 0 0-1.64 0L51 60.48l-4.1-4.06a1.16 1.16 0 0 0-1.64 0 1.15 1.15 0 0 0 0 1.63l4.06 4.06-4.06 4.07a1.15 1.15 0 0 0 0 1.63 1.16 1.16 0 0 0 1.64 0l4.1-4.06 4 4.06a1.16 1.16 0 0 0 1.64 0 1.15 1.15 0 0 0 0-1.63zm78.04-22.62h-7.52V32a1.52 1.52 0 1 0-3 0v7.53h-7.53a1.52 1.52 0 0 0 0 3h7.53V50a1.52 1.52 0 1 0 3 0v-7.48h7.52a1.52 1.52 0 1 0 0-3zm-85.55 80.6l2.35 6.91-6.92 2.33-2.34-6.92 6.93-2.33m2-4.84a.9.9 0 0 0-.28 0L35.87 119a2.9 2.9 0 0 0-1.87 3.68l3 9a2.91 2.91 0 0 0 2.76 2 2.71 2.71 0 0 0 .93-.15l10.94-3.68a.84.84 0 0 0 .53-1.08l-4.34-12.89a.84.84 0 0 0-.8-.58zm37.39-10.63l3.27 9.71-27.66 9.31-3.27-9.7 27.66-9.32m2-4.84a.84.84 0 0 0-.27 0l-33.68 11.39a.83.83 0 0 0-.52 1l5.29 15.71a.85.85 0 0 0 1.06.53L92 117.11a.83.83 0 0 0 .52-1.06l-5.28-15.7a.84.84 0 0 0-.79-.57zm49.65-17.4l5.33 15.82-40.67 13.69-5.33-15.82 40.67-13.69m1.8-4.77a1.13 1.13 0 0 0-.36.06l-46.1 15.52a1.14 1.14 0 0 0-.71 1.44l7.15 21.25a1.13 1.13 0 0 0 1.44.72l46.1-15.53a1.13 1.13 0 0 0 .72-1.43L139 78.37a1.14 1.14 0 0 0-1.08-.77zm49.41-16.87L194.51 82l-40.67 13.7-7.16-21.27 40.67-13.7m1.72-4.73a1.18 1.18 0 0 0-.41.07l-45.85 15.44a1.27 1.27 0 0 0-.8 1.6l8.91 26.46a1.27 1.27 0 0 0 1.2.87 1.47 1.47 0 0 0 .41-.07l45.85-15.44a1.26 1.26 0 0 0 .79-1.6l-8.91-26.47a1.26 1.26 0 0 0-1.19-.86z" id="NERO"/></svg>